<svg xmlns="http://www.w3.org/2000/svg" viewBox="0 0 50 50" id="trash"><path fill="#231F20" d="M10.289 14.211h3.102l1.444 25.439a1 1 0 0 0 .998.943h18.933a1 1 0 0 0 .998-.944l1.421-25.438h3.104a1 1 0 1 0 0-2h-3.741c-.055 0-.103.023-.156.031-.052-.008-.1-.031-.153-.031h-5.246V9.594a1 1 0 0 0-1-1h-9.409a1 1 0 0 0-1 1v2.617h-5.248c-.046 0-.087.021-.132.027-.046-.007-.087-.027-.135-.027H10.29a1 1 0 0 0-.001 2zm11.295-3.617h7.409v1.617h-7.409v-1.617zm13.598 3.617L33.82 38.594H16.778l-1.384-24.383h19.788z"></path><path fill="#231F20" d="M20.337 36.719l.058-.001a.999.999 0 00.941-1.055l-1.052-18.535a1.012 1.012 0 00-1.055-.942.999.999 0 00-.941 1.055l1.052 18.535a1 1 0 00.997.943zM30.147 36.718l.058.001a1 1 0 00.997-.943l1.052-18.535a1 1 0 00-.941-1.055 1.011 1.011 0 00-1.055.942l-1.052 18.535a1 1 0 00.941 1.055zM25.289 36.719a1 1 0 001-1V17.184a1 1 0 10-2 0v18.535a1 1 0 001 1z"></path></svg>